<?xml version="1.0" standalone="no"?>
<!DOCTYPE svg PUBLIC "-//W3C//DTD SVG 20010904//EN"
 "http://www.w3.org/TR/2001/REC-SVG-20010904/DTD/svg10.dtd">
<svg version="1.0" xmlns="http://www.w3.org/2000/svg"
 width="654.000000pt" height="654.000000pt" viewBox="0 0 654.000000 654.000000"
 preserveAspectRatio="xMidYMid meet">
<metadata>
Created by potrace 1.14, written by Peter Selinger 2001-2017
</metadata>
<g transform="translate(0.000000,654.000000) scale(0.100000,-0.100000)"
fill="#000000" stroke="none">
<path d="M3020 6049 c-79 -65 -149 -158 -356 -472 -22 -34 -48 -85 -58 -113
-16 -50 -82 -168 -121 -215 -11 -14 -60 -46 -110 -71 -49 -25 -108 -55 -130
-67 -21 -12 -47 -21 -55 -21 -23 0 -123 -42 -190 -79 -30 -17 -60 -31 -67 -31
-7 0 -35 -13 -62 -29 -28 -17 -87 -49 -131 -73 -108 -57 -246 -141 -260 -159
-3 -3 -13 -10 -22 -15 -9 -5 -42 -33 -72 -61 -31 -29 -63 -53 -70 -53 -8 0
-21 -6 -28 -13 -7 -6 -51 -45 -98 -86 -47 -41 -88 -80 -93 -87 -4 -7 -22 -72
-40 -146 -25 -98 -33 -151 -31 -203 1 -38 -4 -90 -11 -115 -36 -118 -45 -230
-40 -498 2 -144 7 -268 12 -275 4 -6 11 -95 14 -197 9 -231 40 -502 73 -643 9
-38 16 -79 16 -92 0 -12 11 -47 25 -77 49 -106 34 -141 -72 -163 -116 -25
-219 -63 -285 -106 -33 -21 -69 -41 -79 -44 -10 -4 -19 -11 -19 -16 0 -6 -4
-7 -10 -4 -15 9 -130 -114 -151 -161 -18 -39 -19 -90 -5 -183 12 -77 47 -149
88 -179 9 -7 23 -18 30 -25 73 -71 233 -93 418 -58 30 6 84 11 120 12 36 0 90
9 120 19 73 23 95 28 165 36 32 3 86 14 119 24 34 11 88 22 121 25 57 7 64 5
106 -24 86 -57 218 -99 369 -115 30 -4 68 -9 85 -12 16 -3 84 -7 151 -8 67 -2
125 -6 130 -9 5 -3 65 -8 134 -12 69 -3 143 -8 165 -10 22 -2 138 -4 259 -5
242 -2 280 -10 291 -59 3 -14 28 -53 56 -86 28 -33 60 -72 72 -86 12 -14 33
-41 47 -59 14 -18 32 -41 40 -50 8 -10 33 -39 55 -66 134 -164 263 -234 459
-250 139 -11 271 34 369 126 66 62 90 131 72 200 -21 79 -56 139 -122 209 -35
36 -63 69 -63 73 0 4 -6 13 -13 20 -7 7 -23 31 -36 53 -27 45 -131 177 -170
216 -14 14 -43 36 -63 50 l-37 25 111 117 c60 64 122 126 138 137 l27 19 64
-35 c73 -40 85 -47 154 -89 62 -39 112 -59 195 -78 247 -57 342 -57 559 3 162
45 219 93 275 230 98 241 96 322 -12 432 l-45 47 21 66 c12 36 22 73 22 83 0
17 52 180 77 239 7 17 13 36 13 41 0 6 8 13 18 16 10 3 46 39 81 78 35 40 107
118 160 174 122 128 148 187 160 363 4 64 6 134 3 156 -11 105 -167 315 -233
315 -9 0 -38 12 -65 28 -44 24 -60 27 -158 29 -68 2 -115 -2 -123 -9 -7 -6
-13 -7 -13 -3 0 5 -8 1 -17 -7 -10 -9 -36 -25 -58 -36 -46 -23 -163 -142 -251
-252 -76 -97 -85 -104 -102 -82 -7 9 -20 26 -30 37 -96 114 -122 166 -122 241
0 18 -7 58 -15 89 -10 40 -14 118 -15 282 0 125 -5 245 -11 267 -19 74 -61
190 -81 228 -15 25 -19 45 -14 65 4 15 9 44 11 63 4 51 41 148 77 205 104 167
118 192 120 227 1 21 4 35 7 33 9 -10 41 29 41 50 0 37 -94 164 -177 239 -28
25 -39 42 -32 46 23 15 0 66 -41 89 -21 12 -67 48 -102 81 -35 33 -77 64 -95
70 -18 6 -35 20 -38 31 -11 33 -73 61 -232 104 -48 14 -63 22 -67 40 -4 14
-18 27 -38 34 -62 22 -213 41 -363 48 -82 3 -152 10 -154 15 -1 5 -12 17 -22
27 -17 16 -45 19 -192 25 -95 3 -217 9 -273 12 l-100 6 -54 -43z m565 -189
c22 -5 45 -17 52 -26 7 -10 13 -14 13 -10 0 5 6 4 13 -2 7 -6 53 -16 102 -22
49 -6 92 -13 96 -15 4 -3 42 -5 85 -6 90 -1 146 -20 164 -54 15 -28 23 -32
112 -50 36 -8 105 -32 151 -54 67 -31 86 -44 89 -62 3 -23 98 -97 126 -98 6
-1 12 -10 12 -20 0 -12 23 -37 59 -65 59 -46 131 -151 131 -193 0 -19 -84
-150 -168 -263 -27 -36 -56 -79 -65 -97 -9 -17 -21 -34 -26 -37 -17 -11 -298
70 -451 131 -105 42 -259 87 -335 99 -55 8 -129 25 -235 54 -58 15 -132 33
-165 40 -33 7 -89 21 -124 31 -35 11 -96 24 -134 30 -39 6 -106 22 -150 35
-44 13 -100 24 -123 24 -24 0 -54 4 -68 10 l-26 9 19 43 c10 24 29 67 42 97
13 30 36 72 52 93 15 21 27 40 27 43 0 12 70 118 129 192 70 91 125 130 199
143 66 11 349 11 397 0z m-805 -821 c25 -6 70 -11 100 -11 58 -1 139 -21 174
-43 12 -7 41 -16 66 -20 25 -4 54 -13 65 -19 11 -7 47 -16 80 -19 33 -3 121
-23 195 -45 74 -21 167 -45 205 -52 39 -7 104 -23 145 -35 41 -13 121 -37 177
-53 79 -23 115 -40 160 -75 51 -39 157 -97 177 -97 4 0 34 -20 66 -45 51 -41
60 -54 80 -113 29 -84 38 -150 45 -327 8 -204 9 -274 3 -280 -3 -3 -44 13 -92
35 -82 40 -88 41 -139 31 -28 -5 -88 -13 -132 -16 -93 -8 -174 -25 -265 -54
-36 -12 -110 -30 -165 -41 -55 -11 -134 -29 -175 -41 -204 -58 -264 -59 -403
-8 -43 16 -96 29 -118 29 -21 0 -58 8 -82 19 -89 39 -124 51 -192 64 -39 8
-84 21 -100 29 -54 27 -169 57 -229 59 -50 2 -64 7 -98 36 -22 18 -51 33 -65
33 -13 0 -91 22 -173 49 -82 28 -165 53 -184 56 -19 4 -37 13 -40 21 -3 9 -21
14 -47 14 -30 0 -57 9 -93 32 -28 18 -54 36 -57 41 -4 5 -17 11 -30 12 -13 2
-44 11 -69 20 -25 10 -74 25 -109 34 l-64 17 25 24 c47 47 98 90 98 85 0 -7
10 1 60 46 19 17 67 52 105 78 39 25 104 72 145 103 226 172 325 239 390 263
25 9 74 30 110 46 36 16 121 51 190 78 132 52 178 59 260 40z m2909 -1508 c43
-22 106 -89 123 -129 6 -15 11 -72 10 -126 -1 -85 -3 -101 -19 -109 -10 -6
-47 -38 -83 -72 -36 -34 -77 -69 -92 -78 -14 -9 -59 -54 -98 -99 -39 -46 -98
-112 -129 -148 -60 -67 -88 -113 -102 -165 -16 -57 -48 -170 -74 -260 -27 -94
-28 -183 -2 -230 6 -11 10 -23 10 -26 -1 -4 18 -26 42 -50 25 -24 45 -53 45
-64 0 -11 -12 -48 -27 -83 l-28 -62 -65 -20 c-125 -37 -178 -42 -286 -24 -55
8 -119 18 -143 20 -95 10 -104 41 -32 111 38 37 55 64 74 118 14 39 39 104 55
145 16 41 37 98 47 125 21 59 69 191 80 220 33 82 45 118 45 134 0 11 13 48
30 83 16 34 30 71 30 80 0 10 7 38 15 62 14 41 14 49 0 75 -30 59 -11 142 38
167 35 18 148 133 212 214 74 95 162 180 202 194 53 20 78 19 122 -3z m-1104
-75 c27 -60 50 -90 120 -157 91 -88 105 -109 150 -224 15 -38 32 -76 38 -83 5
-6 10 -40 10 -75 1 -48 -6 -76 -27 -122 -15 -33 -49 -121 -76 -195 -26 -74
-69 -182 -94 -239 -26 -57 -56 -131 -68 -165 -11 -33 -28 -73 -36 -88 -20 -34
-77 -58 -138 -58 -39 0 -98 -15 -209 -52 -16 -6 -45 -13 -62 -15 -18 -3 -33
-9 -33 -14 0 -5 -11 -9 -24 -9 -38 0 -256 -184 -368 -311 -142 -160 -155 -172
-205 -187 -35 -10 -119 -15 -308 -17 -535 -5 -613 -4 -710 9 -27 4 -99 9 -160
11 -60 2 -121 6 -135 10 -14 4 -63 10 -110 14 -72 7 -93 13 -138 42 -178 115
-217 155 -77 80 40 -21 85 -41 101 -44 16 -3 63 -14 104 -26 42 -11 117 -22
167 -24 81 -4 104 0 209 30 161 47 211 73 283 145 113 115 139 172 101 221
-14 18 -28 25 -43 23 -12 -3 -27 -5 -33 -5 -6 -1 -41 -36 -79 -78 -37 -43 -80
-86 -94 -96 -14 -9 -75 -33 -136 -53 -103 -34 -115 -36 -195 -30 -47 4 -96 7
-109 7 -40 -1 -127 29 -174 60 -96 63 -222 230 -252 334 -54 184 -56 188 -111
243 -31 30 -83 67 -125 87 -40 19 -87 46 -106 61 -37 28 -37 42 1 102 l21 33
125 -4 c86 -3 147 -11 195 -25 39 -11 95 -23 125 -27 106 -13 220 -45 297 -84
214 -107 292 -126 508 -126 186 0 208 5 279 57 57 41 75 87 51 124 -35 53 -85
51 -158 -8 -27 -22 -37 -23 -185 -23 -183 0 -224 10 -407 100 -114 56 -208 84
-355 105 -47 7 -125 26 -174 42 -84 27 -94 28 -205 22 -64 -3 -127 -10 -140
-15 -37 -14 -73 -47 -104 -92 l-28 -42 2 65 c2 36 -1 101 -6 145 -5 44 -8 83
-7 87 1 3 -5 46 -13 95 -7 48 -16 104 -19 123 -3 19 -8 45 -10 56 -7 32 -10
118 -5 123 2 3 23 -8 46 -22 112 -71 158 -89 283 -113 69 -13 148 -29 175 -35
28 -6 142 -14 255 -18 223 -8 218 -6 309 -76 31 -24 91 -62 134 -84 43 -23
102 -57 130 -76 119 -78 241 -99 517 -90 113 4 212 9 220 10 66 13 138 38 171
59 21 14 42 26 47 26 20 0 80 80 90 120 11 43 21 121 21 168 l1 52 44 0 c68 0
504 107 564 139 9 5 37 12 62 16 53 8 180 64 180 79 0 9 67 74 78 76 1 0 18
-33 37 -74z m-3127 -1204 c60 -58 67 -70 85 -159 8 -40 24 -88 36 -106 12 -19
21 -41 21 -48 0 -8 16 -38 36 -67 20 -30 34 -55 32 -57 -6 -6 -68 47 -152 130
-74 73 -84 88 -118 175 -21 52 -40 121 -44 153 l-6 59 31 -16 c17 -9 53 -38
79 -64z m247 -482 l20 -25 -22 19 c-13 11 -23 24 -23 29 0 6 1 8 3 6 1 -2 11
-15 22 -29z m-338 -88 c32 -31 80 -77 107 -100 28 -24 45 -46 40 -51 -5 -5
-58 -16 -119 -25 -60 -10 -153 -24 -205 -32 -52 -8 -106 -16 -120 -19 -99 -18
-129 -16 -192 10 -35 14 -67 27 -73 28 -41 9 -47 52 -10 69 14 6 25 15 25 20
0 5 19 18 43 29 23 11 66 34 96 50 30 16 66 29 80 29 14 0 64 11 111 24 135
38 148 36 217 -32z m2558 -505 c1 -4 77 -97 89 -109 7 -7 19 -25 27 -40 28
-53 107 -164 138 -192 17 -17 31 -33 31 -37 0 -12 -62 -27 -95 -24 -16 2 -56
4 -87 4 -48 1 -63 6 -90 30 -18 15 -49 36 -68 46 -44 22 -158 124 -166 147
-10 33 22 75 76 102 47 23 64 37 79 64 10 19 18 22 39 17 15 -4 27 -7 27 -8z"/>
<path d="M2159 4493 c-32 -6 -93 -27 -136 -47 -43 -19 -103 -38 -133 -42 -30
-3 -62 -13 -71 -21 -17 -14 -151 -15 -142 0 2 4 -1 7 -6 7 -6 0 -11 -4 -11
-10 0 -5 -11 -10 -23 -10 -26 0 -57 -28 -57 -52 0 -33 34 -46 153 -59 159 -17
228 -6 362 61 99 50 160 62 193 41 8 -5 28 -37 46 -72 29 -57 54 -106 77 -149
5 -8 16 -30 25 -48 24 -47 64 -72 117 -72 28 0 69 -11 109 -29 70 -31 268 -98
390 -131 68 -19 199 -34 393 -45 73 -4 125 14 125 45 0 11 0 23 1 27 1 15
-138 45 -241 53 -58 4 -143 15 -190 24 -47 8 -98 17 -115 19 -38 5 -59 13
-115 43 -25 13 -81 42 -125 63 -54 25 -89 50 -108 74 -15 20 -27 39 -27 43 0
4 -10 19 -22 32 -13 14 -18 22 -12 19 7 -4 22 1 34 11 18 15 21 22 12 38 -21
38 -159 163 -188 169 -16 4 -45 13 -64 21 -41 17 -160 16 -251 -3z"/>
<path d="M3839 2651 c-18 -18 -29 -40 -29 -58 0 -15 -7 -121 -14 -235 -16
-241 -14 -233 -129 -346 -70 -68 -103 -118 -137 -208 -6 -18 -10 -40 -8 -50 5
-28 34 -47 61 -38 12 4 28 9 36 10 7 1 23 11 35 22 11 11 36 27 54 36 38 19
140 120 199 197 57 74 72 134 89 354 23 279 23 278 -15 316 -23 23 -38 29 -71
29 -33 0 -48 -6 -71 -29z"/>
</g>
</svg>
